<?xml version="1.0" encoding="utf-8"?>
<!-- Generator: Adobe Illustrator 24.0.1, SVG Export Plug-In . SVG Version: 6.00 Build 0)  -->
<svg version="1.1" xmlns="http://www.w3.org/2000/svg" xmlns:xlink="http://www.w3.org/1999/xlink" x="0px" y="0px"
	 viewBox="0 0 3997.46 2118.31" style="enable-background:new 0 0 3997.46 2118.31;" xml:space="preserve">
<style type="text/css">
	.st0{clip-path:url(#SVGID_2_);}
	.st1{fill:#AEAFAF;}
	.st2{fill:#9E9F9F;}
	.st3{fill:#818282;}
	.st4{fill:#BCBDBD;}
	.st5{fill:#C8C9C9;}
	.st6{fill:#D2D3D4;}
	.st7{fill:#FFFFFF;}
	.st8{fill:#A21533;}
</style>
<g id="Grey_Stacked">
</g>
<g id="Blue_Stacked">
</g>
<g id="Grey_Horizontal">
	<g>
		<g>
			<g>
				<defs>
					<path id="SVGID_1_" d="M1497.77,880.08c-166.03,0-282,57.96-355.79,163.39l65.89-500.72h666.12V318.76h-773.6
						c-86.26-169.29-255.9-276.98-486.65-276.98c-342.6,0-550.8,229.26-550.8,579.76v23.71h245.09v-36.88
						c0-197.64,113.31-334.69,303.07-334.69c197.65,0,300.42,137.05,300.42,329.42c0,144.95-89.6,268.78-221.36,392.65L60.31,1586.1
						v213.45h859.06c103.04,169.96,292.52,276.98,525.68,276.98c361.04,0,611.4-250.34,611.4-616.65
						C2056.45,1109.34,1808.73,880.08,1497.77,880.08z M1445.05,1844.63c-180.91,0-310.1-108.42-349.41-268.06
						c-1.35-5.46,1.13,5.58,0,0l-254.6-1.01c0.59,5.24-0.72-5.18,0,0H402.9l469.1-432.22c14.74-13.47,28.8-26.77,42.55-39.99
						l-15.01,116.69l223.99,68.55c55.35-115.97,168.66-192.42,321.52-192.42c218.74,0,361.04,147.58,361.04,363.71
						C1806.09,1691.78,1663.8,1844.63,1445.05,1844.63z"/>
				</defs>
				<clipPath id="SVGID_2_">
					<use xlink:href="#SVGID_1_"  style="overflow:visible;"/>
				</clipPath>
				<g class="st0">
					<polygon class="st1" points="-546.54,1523.32 82.55,1899.57 -249.94,2037.94 					"/>
					<polygon class="st2" points="417.06,1325.57 460.39,1757.72 80.62,1900.4 					"/>
					<polygon class="st3" points="343.4,2551.51 -249.98,2037.8 80.62,1900.4 					"/>
					<polygon class="st4" points="-116.59,732.15 259.11,547.2 246.6,833.31 					"/>
					<polygon class="st1" points="22.5,1354.46 603.11,1064.34 417.06,1325.57 					"/>
					<polygon class="st2" points="417.06,1325.57 1137.92,1461.28 460.39,1757.72 					"/>
					<polygon class="st4" points="22.5,1354.46 246.46,832.27 603.11,1064.34 					"/>
					<polygon class="st3" points="-546.54,1523.32 22.5,1354.46 80.62,1900.4 					"/>
					<polygon class="st3" points="-549.55,456.16 -120.66,689.87 22.5,1354.46 					"/>
					<polygon class="st1" points="65.86,201.48 -120.66,689.87 -549.55,456.16 					"/>
					<polygon class="st4" points="603.11,1064.34 246.46,832.27 259.11,547.2 					"/>
					<polygon class="st1" points="22.5,1354.46 -120.66,689.87 246.46,832.27 					"/>
					<polygon class="st4" points="-549.55,456.16 -254.12,-37.35 65.86,201.48 					"/>
					<polygon class="st3" points="-133.65,-29.77 1211.2,-62.37 668.24,25.97 					"/>
					<polygon class="st5" points="709.13,2180.86 1137.33,1459.28 1268.24,1801.28 					"/>
					<polygon class="st1" points="603.11,1064.34 1037.4,1068.26 1137.92,1461.28 					"/>
					<polygon class="st2" points="1773.86,1472.49 1137.92,1461.28 1459.01,844.82 					"/>
					<polygon class="st5" points="1137.92,1461.28 417.06,1325.57 603.11,1064.34 					"/>
					<polygon class="st4" points="726.39,2151.78 794.25,2037.92 460.39,1757.72 1137.92,1461.28 					"/>
					<polygon class="st6" points="2394.02,283.62 1988.61,268.77 1893.66,-198.84 					"/>
					<polygon class="st5" points="1459.01,844.82 1037.4,1068.26 1190.31,682.34 					"/>
					<polygon class="st1" points="2237.07,809.72 1459.01,844.82 1861.9,684.19 					"/>
					<polygon class="st1" points="1880.31,696.47 1249.16,280.94 1988.61,268.77 					"/>
					<polygon class="st4" points="2237.07,809.72 1773.86,1472.49 1459.01,844.82 					"/>
					<polygon class="st6" points="2394.02,283.62 2237.07,809.72 1880.31,696.47 					"/>
					<polygon class="st3" points="2418.39,1859.15 2112.84,1478.1 2237.07,809.72 					"/>
					<polygon class="st4" points="1257.9,1797.62 2112.84,1478.1 2418.39,1859.15 					"/>
					<polygon class="st4" points="666.75,25.33 259.11,547.2 65.86,201.48 					"/>
					<polygon class="st5" points="65.86,201.48 259.11,547.2 -70.35,709.38 -120.66,689.87 					"/>
					<polygon class="st1" points="-249.98,2037.8 343.21,2551.65 -270.45,2648.83 					"/>
					<polygon class="st5" points="2237.07,809.72 2112.84,1478.1 1773.86,1472.49 					"/>
					<polygon class="st4" points="2407.14,2590.86 1715.47,2242.46 2418.39,1859.15 					"/>
					<polygon class="st1" points="1895.17,-197.4 1248.93,283.03 1288.67,-74.9 					"/>
					<polygon class="st4" points="1249.16,280.94 1190.31,682.34 603.11,1064.34 					"/>
					<polygon class="st2" points="1190.31,682.34 1037.4,1068.26 603.11,1064.34 					"/>
					<polygon class="st5" points="1459.01,844.82 1190.31,682.34 1242.98,264.09 					"/>
					<polygon class="st2" points="666.75,25.33 1249.16,280.94 603.11,1064.34 					"/>
					<polygon class="st4" points="1249.16,280.94 1861.9,684.19 1459.01,844.82 					"/>
					<polygon class="st4" points="1895.17,-197.4 1988.61,268.77 1249.16,280.94 					"/>
					<polygon class="st6" points="1416.16,2390.75 1071.41,2546.97 726.39,2151.78 					"/>
					<polygon class="st3" points="2520.48,-120.18 2394.02,283.62 2043.25,-54.62 					"/>
					<polygon class="st2" points="2112.84,1478.1 1257.9,1797.62 1773.86,1472.49 					"/>
					<polygon class="st6" points="342.57,2552.11 79.97,1900 726.23,2152.21 					"/>
					<polygon class="st4" points="1137.92,1461.28 1037.4,1068.26 1483.14,798.5 					"/>
					<polygon class="st5" points="47.49,1956.99 22.5,1354.46 417.06,1325.57 					"/>
					<polygon class="st4" points="80.62,1900.4 562.25,1713.15 794.25,2037.92 726.39,2151.78 					"/>
					<polygon class="st1" points="-267.1,74.93 605.75,-13.98 655.66,41.78 76.45,279.72 					"/>
					<polygon class="st1" points="663.33,43.56 1292.22,4.76 1129.33,305.23 					"/>
					<polygon class="st1" points="522.5,1074.69 259.11,547.2 666.75,25.33 603.11,1064.34 					"/>
					<polygon class="st6" points="2418.39,1859.15 1715.47,2242.46 1268.24,1801.28 1230.26,1776.52 1226.37,1763.24 
						1288.18,1788.37 					"/>
					<polygon class="st2" points="1445.84,2387.17 756.07,2148.2 1268.24,1801.28 					"/>
					<polygon class="st4" points="1268.13,1801.28 1745.03,2238.88 1445.73,2387.17 					"/>
					<polygon class="st1" points="2337.85,859.8 1988.38,1167.15 1485.24,857.34 					"/>
				</g>
			</g>
		</g>
		<rect x="1894.09" y="1038.65" class="st7" width="2040.86" height="871.8"/>
		<g>
			<g>
				<path class="st3" d="M2045.35,504.42v96.98h-39.67v-97.79l-111.41-182.74h42.88l89.77,147.89l90.16-147.89h39.67L2045.35,504.42
					z"/>
				<path class="st3" d="M2396.05,566.53v34.87h-203.58V320.87h197.97v34.87h-157.9v86.16h140.66v34.06h-140.66v90.56H2396.05z"/>
				<path class="st3" d="M2639.75,531.27h-149.06l-30.87,70.12h-41.27l127.03-280.52h39.67l127.45,280.52h-42.09L2639.75,531.27z
					 M2625.72,499.21l-60.52-137.46l-60.5,137.46H2625.72z"/>
				<path class="st3" d="M2941.96,601.4l-60.52-86.16c-5.61,0.4-11.62,0.81-17.62,0.81h-69.33v85.36h-40.07V320.87h109.41
					c72.93,0,117.02,36.87,117.02,97.79c0,43.28-22.46,74.54-61.73,88.56l66.53,94.17H2941.96z M2940.77,418.66
					c0-40.07-26.86-62.92-78.15-62.92h-68.12v126.24h68.12C2913.91,481.98,2940.77,458.73,2940.77,418.66z"/>
				<path class="st3" d="M3020.15,569.33l14.83-31.26c20.84,18.85,56.5,32.47,92.58,32.47c48.49,0,69.31-18.85,69.31-43.28
					c0-68.53-169.91-25.24-169.91-129.45c0-43.26,33.66-80.13,107.39-80.13c32.87,0,66.93,8.8,90.18,24.84l-13.24,32.06
					c-24.44-15.64-52.08-22.84-76.94-22.84c-47.68,0-68.12,20.04-68.12,44.47c0,68.53,169.92,25.65,169.92,128.64
					c0,42.88-34.46,79.75-108.6,79.75C3084.68,604.6,3042.6,590.18,3020.15,569.33z"/>
				<path class="st3" d="M3379.66,461.13c0-82.15,63.32-143.45,149.48-143.45c85.36,0,148.68,60.9,148.68,143.45
					S3614.5,604.6,3529.15,604.6C3442.98,604.6,3379.66,543.28,3379.66,461.13z M3637.75,461.13c0-62.11-46.49-107.79-108.6-107.79
					c-62.92,0-109.41,45.68-109.41,107.79s46.49,107.79,109.41,107.79C3591.26,568.93,3637.75,523.24,3637.75,461.13z"/>
				<path class="st3" d="M3779.26,355.74v97.79h140.67v34.47h-140.67v113.4h-40.07V320.87h197.97v34.87H3779.26z"/>
			</g>
			<path class="st8" d="M1901.34,1910.45h707.97l395.85-387.94C2761.59,1602.93,2238.52,1802.01,1901.34,1910.45z"/>
			<path class="st8" d="M2644.58,1910.45h554.05c-29.99-91.96-164.14-375.41-169.74-392.88
				C3013.07,1527.12,2757.97,1798.06,2644.58,1910.45z"/>
			<path class="st8" d="M3647.3,1243.69c0-14.21-10.71-25.6-24.1-25.6h-0.15c-13.27,0-24.1,11.39-24.1,25.48
				c0,14.31,10.84,25.58,24.26,25.58C3636.59,1269.29,3647.3,1257.88,3647.3,1243.69z M3617.43,1246.62v14.48h-5.37v-33.64
				c2.81-0.4,5.49-0.8,9.51-0.8c5.1,0,8.45,1.06,10.45,2.55c2.02,1.46,3.08,3.73,3.08,6.97c0,4.42-2.94,7.11-6.54,8.18v0.26
				c2.93,0.55,4.94,3.2,5.61,8.17c0.79,5.24,1.62,7.25,2.16,8.32h-5.64c-0.8-1.07-1.61-4.15-2.28-8.57
				c-0.81-4.3-2.95-5.92-7.23-5.92H3617.43z"/>
			<path class="st8" d="M1894.09,1038.65v859.93l1127.22-399.81l-135.79-318.72l-1.32-0.99v284.77c0,31.98,15.49,47.46,53.72,47.46
				v10.21h-128.21v-10.21c38.23,0,53.39-15.49,53.39-47.46v-251.48c0-46.81,0-61.64-53.39-61.64v-10.21h154.25l106.46,251.49
				l101.84-251.49h153.59v10.21c-53.39,0-53.39,14.83-53.39,61.64v237.32c0,46.47,0,61.63,53.39,61.63v10.21h-197.43v-10.21
				c53.39,0,53.39-15.16,53.39-61.63v-274.89l-0.99,1.32l-133.82,323.67l887.93,401.78v-862.9H1894.09z M2599.19,1231.08
				c-0.04,0-0.05,0.01-0.09,0.01v0.05c-29.99,0-42.19,12.2-42.19,36.92v260.39h-7.25l-0.07-0.09h-0.03l-162.57-200.12l-38.64-47.55
				h-0.74v195.69c0,12.48,3.05,21.76,9.8,27.94c6.83,6.11,17.4,9.14,32.46,9.14v8.14h-101.48v-0.07h-0.1v-7.91
				c0.04,0,0.06-0.01,0.1-0.01v-0.15c30.21,0,42.39-12.15,42.39-36.99v-217.87c-5.86-7.51-10.58-13.04-15.51-17.46
				c-7.22-6.43-14.9-9.99-27.64-9.99v-0.04c-0.05,0-0.08-0.02-0.14-0.02v-8.13h0.14v-0.05h105.47l62.36,78.27l83.73,104.92h0.91
				v-138.02c0-2.42-0.69-4.15-0.92-6.32c-2.19-20.11-14.22-30.61-41.59-30.61v-8.24h101.52v0.05h0.09V1231.08z M2763.38,1231.08
				c-0.06,0-0.09,0-0.15,0v0.05c-42.19,0-42.19,11.54-42.19,48.13v185.89c0,18.26,0.01,30.36,5.25,37.9
				c5.31,7.47,15.91,10.39,37.08,10.39v8.14h-156.53v-8.14c22.98,0,33.31-3.64,38.13-12.61c4.02-7.62,4.22-18.97,4.22-35.68v-185.89
				c0-18.29,0-30.32-5.27-37.79c-0.24-0.34-0.66-0.55-0.93-0.87c-5.5-6.72-15.87-9.47-35.99-9.47v-0.05c-0.06,0-0.1,0-0.16,0v-8.13
				h0.16v-0.05h156.23v0.05h0.15V1231.08z M3474.84,1528.44c-23.4,0-38.23-4.61-59-13.51c-1.17-0.5-2.77-0.96-4.19-1.46
				c-4.19-1.41-8.94-2.73-12.68-2.73c-10.36,0-19.37,8.6-22.53,17.62h-0.1c-0.01,0.03-0.04,0.06-0.05,0.09h-7.91v-0.09h-0.06
				v-112.78h8.12c3.78,27.06,17.59,54.06,37.92,72.85c15.94,14.72,35.76,24.52,58.5,24.52c11.39,0,23.22-3.14,33.02-8.94
				c12.27-7.32,21.23-18.92,21.23-34.77c0-39.16-51.26-55.25-95.63-80.29c-33.89-19.06-63.77-43.3-63.77-86.94
				c0-27.72,13.21-50.43,32.83-65.6c16.29-12.67,36.96-20.23,58.9-20.23c21.63,0,35.62,4.09,54.57,13.54
				c1.69,0.85,3.5,1.61,5.26,2.44c4.84,2.21,9.89,4.26,15.22,4.26c10.62,0,12.53-8.71,14.46-17.16c0.23-1.03,0.46-2.06,0.7-3.08
				h8.11v0.13h0.13v99.21h-8.24c-4.95-40.21-41.2-82.07-84.05-82.07c-24.72,0-49.77,12.2-49.77,39.56
				c0,22.91,22.76,37.58,51.16,52.27c47.28,24.39,110.17,48.83,110.17,111.05c0,23.36-8.75,42.89-22.43,58.07
				C3535.46,1515.91,3505.98,1528.44,3474.84,1528.44z M3623.16,1273.98c-8.24,0-15.74-3.38-21.18-8.87
				c-1.95-1.95-3.27-4.45-4.62-6.9c-2.43-4.37-4.19-9.16-4.19-14.55c0-0.03,0.02-0.06,0.02-0.09l0-0.01
				c0-12.6,7.57-23.29,18.32-27.84c3.59-1.54,7.53-2.39,11.66-2.39c4.87,0,9.26,1.46,13.3,3.56c9.63,4.96,16.34,14.85,16.34,26.67
				l0,0c0,0.04,0.02,0.06,0.02,0.1C3652.82,1260.47,3639.64,1273.98,3623.16,1273.98z"/>
			<path class="st8" d="M3230.61,1910.45h683.25c-171.72-85.37-767.3-340.15-864.53-388.93L3230.61,1910.45z"/>
			<g>
				<path class="st3" d="M2055.69,900.01v33.4h-160.9V718.87h156.61v33.4h-116.78v55.79h103.6v32.8h-103.6v59.16H2055.69z"/>
				<path class="st3" d="M2232.78,933.41l-58.22-81.52l-57.62,81.52h-45.37l79.69-109.43l-75.4-105.12h45.06l54.87,76.32
					l54.25-76.32h43.21l-75.09,103.6l80.61,110.95H2232.78z"/>
				<path class="st3" d="M2286.96,826.13c0-64.05,49.04-110.32,114.94-110.32c34.94,0,64.97,12.56,84.9,35.86l-25.74,24.22
					c-15.64-16.87-34.94-25.13-57.33-25.13c-44.44,0-76.61,31.26-76.61,75.38c0,44.14,32.17,75.4,76.61,75.4
					c22.38,0,41.69-8.27,57.33-25.43l25.74,24.51c-19.93,23.3-49.96,35.86-85.21,35.86C2336,936.48,2286.96,890.2,2286.96,826.13z"
					/>
				<path class="st3" d="M2685.94,900.01v33.4h-160.9V718.87h156.61v33.4h-116.78v55.79h103.6v32.8h-103.6v59.16H2685.94z"/>
				<path class="st3" d="M2730.33,718.87h39.84V899.7h112.18v33.71h-152.01V718.87z"/>
				<path class="st3" d="M2913.85,718.87h39.84V899.7h112.18v33.71h-152.01V718.87z"/>
				<path class="st3" d="M3258.28,900.01v33.4h-160.9V718.87h156.61v33.4h-116.78v55.79h103.6v32.8h-103.6v59.16H3258.28z"/>
				<path class="st3" d="M3493.31,718.87v214.54h-32.8l-118.3-145.28v145.28h-39.54V718.87h32.8l118.3,145.28V718.87H3493.31z"/>
				<path class="st3" d="M3535.51,826.13c0-64.05,49.04-110.32,114.94-110.32c34.94,0,64.97,12.56,84.9,35.86l-25.74,24.22
					c-15.64-16.87-34.94-25.13-57.33-25.13c-44.44,0-76.61,31.26-76.61,75.38c0,44.14,32.17,75.4,76.61,75.4
					c22.38,0,41.69-8.27,57.33-25.43l25.74,24.51c-19.93,23.3-49.96,35.86-85.21,35.86C3584.55,936.48,3535.51,890.2,3535.51,826.13
					z"/>
				<path class="st3" d="M3934.49,900.01v33.4h-160.9V718.87h156.61v33.4h-116.78v55.79h103.6v32.8h-103.6v59.16H3934.49z"/>
			</g>
		</g>
		<path class="st8" d="M3629.5,1236.58c0-3.11-2.26-6.24-8.65-6.24c-1.86,0-3.13,0.13-4.11,0.28v12.05h4.11
			C3625.55,1242.68,3629.5,1240.98,3629.5,1236.58z"/>
	</g>
</g>
<g id="Blue_Horizontal">
</g>
</svg>
